Abduction_states
version=1
nRows=15
nColumns=41
inDegrees=yes

# SIMM Motion File Header:
name Abduction_states
datacolumns 41
datarows 15
otherdata 1
range 0.00000000 1.70758404
endheader
time	/jointset/ground_thorax/thorax_tilt/value	/jointset/ground_thorax/thorax_tilt/speed	/jointset/ground_thorax/thorax_list/value	/jointset/ground_thorax/thorax_list/speed	/jointset/ground_thorax/thorax_rotation/value	/jointset/ground_thorax/thorax_rotation/speed	/jointset/ground_thorax/thorax_tx/value	/jointset/ground_thorax/thorax_tx/speed	/jointset/ground_thorax/thorax_ty/value	/jointset/ground_thorax/thorax_ty/speed	/jointset/ground_thorax/thorax_tz/value	/jointset/ground_thorax/thorax_tz/speed	/jointset/sternoclavicular/sternoclavicular_r2/value	/jointset/sternoclavicular/sternoclavicular_r2/speed	/jointset/sternoclavicular/sternoclavicular_r3/value	/jointset/sternoclavicular/sternoclavicular_r3/speed	/jointset/unrotscap/unrotscap_r3/value	/jointset/unrotscap/unrotscap_r3/speed	/jointset/unrotscap/unrotscap_r2/value	/jointset/unrotscap/unrotscap_r2/speed	/jointset/acromioclavicular/acromioclavicular_r2/value	/jointset/acromioclavicular/acromioclavicular_r2/speed	/jointset/acromioclavicular/acromioclavicular_r3/value	/jointset/acromioclavicular/acromioclavicular_r3/speed	/jointset/acromioclavicular/acromioclavicular_r1/value	/jointset/acromioclavicular/acromioclavicular_r1/speed	/jointset/unrothum/unrothum_r1/value	/jointset/unrothum/unrothum_r1/speed	/jointset/unrothum/unrothum_r3/value	/jointset/unrothum/unrothum_r3/speed	/jointset/unrothum/unrothum_r2/value	/jointset/unrothum/unrothum_r2/speed	/jointset/shoulder0/elv_angle/value	/jointset/shoulder0/elv_angle/speed	/jointset/shoulder1/shoulder_elv/value	/jointset/shoulder1/shoulder_elv/speed	/jointset/shoulder1/shoulder1_r2/value	/jointset/shoulder1/shoulder1_r2/speed	/jointset/shoulder2/shoulder_rot/value	/jointset/shoulder2/shoulder_rot/speed
      0.00000000	      0.00000000	      0.00000000	      0.00000000	      0.00000000	      0.00000000	      0.00000000	      0.00000000	      0.00000000	      0.00000000	      0.00000000	      0.00000000	      0.00000000	      0.00000000	      0.00000000	     -0.00000000	      0.00000000	      0.00000000	      0.00000000	     -0.00000000	      0.00000000	      0.00000000	      0.00000000	     -0.00000000	      0.00000000	     -0.00000000	      0.00000000	      0.00000000	      0.00000000	      0.00000000	      0.00000000	     -0.00000000	      0.00000000	     30.00000000	      0.00000000	     -0.00000000	      0.00000000	    -30.00000000	      0.00000000	      0.00000000	      0.00000000
      0.01000000	     -0.00000000	     -0.00000000	     -0.00000000	     -0.00000000	     -0.00000000	     -0.00000000	      0.00000000	      0.00000000	      0.00000000	      0.00000000	     -0.00000000	     -0.00000000	     -0.00065188	     -0.13035654	      0.00027611	      0.05521283	     -0.00027611	     -0.05521283	      0.00065188	      0.13035654	     -0.00013199	     -0.02639434	      0.00106670	      0.21330696	      0.00047949	      0.09588217	     -0.00047949	     -0.09588217	     -0.00106670	     -0.21330696	      0.00013199	      0.02639434	     30.00000000	      0.00000000	      0.00269376	      0.53866848	    -30.00000000	     -0.00000000	      0.00000000	      0.00000000
      0.06000000	     -0.00000000	     -0.00000000	      0.00000000	      0.00000000	      0.00000000	      0.00000000	      0.00000000	      0.00000000	     -0.00000000	     -0.00000000	      0.00000000	      0.00000000	     -0.02343108	     -0.78030081	      0.00992429	      0.33049833	     -0.00992429	     -0.33049833	      0.02343108	      0.78030081	     -0.00474428	     -0.15799382	      0.03834110	      1.27683347	      0.01723445	      0.57394077	     -0.01723445	     -0.57394077	     -0.03834110	     -1.27683347	      0.00474428	      0.15799382	     30.00000000	      0.00000000	      0.09682357	      3.22441403	    -30.00000000	     -0.00000000	      0.00000000	      0.00000000
      0.31000000	      0.00000000	     -0.00000000	     -0.00000000	     -0.00000000	     -0.00000000	     -0.00000000	      0.00000000	     -0.00000000	      0.00000000	      0.00000000	      0.00000000	      0.00000000	     -0.62058150	     -3.98418281	      0.26284883	      1.68751047	     -0.26284883	     -1.68751047	      0.62058150	      3.98418281	     -0.12565416	     -0.80670976	      1.01547919	      6.51945753	      0.45646118	      2.93051723	     -0.45646118	     -2.93051723	     -1.01547919	     -6.51945753	      0.12565416	      0.80670976	     30.00000000	      0.00000000	      2.56441066	     16.46372125	    -30.00000000	     -0.00000000	      0.00000000	      0.00000000
      0.87629385	     -0.00000000	     -0.00000000	     -0.00000000	     -0.00000000	     -0.00000000	     -0.00000000	     -0.00000000	     -0.00000000	      0.00000000	     -0.00000000	      0.00000000	      0.00000000	     -4.87009740	    -10.95724282	      2.06274178	      4.64096725	     -2.06274178	     -4.64096725	      4.87009740	     10.95724282	     -0.98608807	     -2.21860170	      7.96911053	     17.92971925	      3.58214093	      8.05946674	     -3.58214093	     -8.05946674	     -7.96911053	    -17.92971925	      0.98608807	      2.21860170	     30.00000000	     -0.00000000	     20.12456001	     45.27829169	    -30.00000000	      0.00000000	      0.00000000	     -0.00000000
      0.99582882	     -0.00000000	     -0.00000000	     -0.00000000	     -0.00000000	     -0.00000000	     -0.00000000	     -0.00000000	      0.00000000	      0.00000000	     -0.00000000	      0.00000000	      0.00000000	     -6.26491240	    -12.37694354	      2.65351911	      5.24228499	     -2.65351911	     -5.24228499	      6.26491240	     12.37694354	     -1.26850756	     -2.50606001	     10.25149504	     20.25282514	      4.60808015	      9.10371035	     -4.60808015	     -9.10371035	    -10.25149504	    -20.25282514	      1.26850756	      2.50606001	     30.00000000	     -0.00000000	     25.88831292	     51.14487915	    -30.00000000	      0.00000000	      0.00000000	     -0.00000000
      1.10920287	     -0.00000000	     -0.00000000	     -0.00000000	     -0.00000000	     -0.00000000	     -0.00000000	     -0.00000000	      0.00000000	      0.00000000	     -0.00000000	      0.00000000	      0.00000000	     -7.74362113	    -13.70558382	      3.27982985	      5.80503387	     -3.27982985	     -5.80503387	      7.74362113	     13.70558382	     -1.56791369	     -2.77508057	     12.67115781	     22.42692565	      5.69572638	     10.08097555	     -5.69572638	    -10.08097555	    -12.67115781	    -22.42692565	      1.56791369	      2.77508057	     30.00000000	     -0.00000000	     31.99873747	     56.63518025	    -30.00000000	      0.00000000	      0.00000000	     -0.00000000
      1.20220426	     -0.00000000	     -0.00000000	     -0.00000000	     -0.00000000	     -0.00000000	     -0.00000000	     -0.00000000	      0.00000000	      0.00000000	     -0.00000000	      0.00000000	      0.00000000	     -9.06840540	    -14.78184136	      3.84094550	      6.26088540	     -3.84094550	     -6.26088540	      9.06840540	     14.78184136	     -1.83615349	     -2.99299915	     14.83894859	     24.18804347	      6.67015534	     10.87260370	     -6.67015534	    -10.87260370	    -14.83894859	    -24.18804347	      1.83615349	      2.99299915	     30.00000000	     -0.00000000	     37.47310447	     61.08256757	    -30.00000000	      0.00000000	      0.00000000	     -0.00000000
      1.31036066	     -0.00000000	     -0.00000000	     -0.00000000	     -0.00000000	     -0.00000000	     -0.00000000	     -0.00000000	      0.00000000	      0.00000000	     -0.00000000	      0.00000000	      0.00000000	    -10.73407429	    -16.01540257	      4.54644367	      6.78336330	     -4.54644367	     -6.78336330	     10.73407429	     16.01540257	     -2.17341496	     -3.24276828	     17.56454078	     26.20656276	      7.89531784	     11.77993465	     -7.89531784	    -11.77993465	    -17.56454078	    -26.20656276	      2.17341496	      3.24276828	     30.00000000	     -0.00000000	     44.35609894	     66.17997619	    -30.00000000	      0.00000000	      0.00000000	     -0.00000000
      1.40269494	     -0.00000000	     -0.00000000	     -0.00000000	     -0.00000000	     -0.00000000	     -0.00000000	      0.00000000	      0.00000000	      0.00000000	     -0.00000000	      0.00000000	      0.00000000	    -12.26047911	    -17.03957968	      5.19295620	      7.21715604	     -5.19295620	     -7.21715604	     12.26047911	     17.03957968	     -2.48247851	     -3.45014171	     20.06225033	     27.88245955	      9.01804635	     12.53325567	     -9.01804635	    -12.53325567	    -20.06225033	    -27.88245955	      2.48247851	      3.45014171	     30.00000000	     -0.00000000	     50.66361662	     70.41215309	    -30.00000000	      0.00000000	      0.00000000	     -0.00000000
      1.47720169	     -0.00000000	     -0.00000000	     -0.00000000	     -0.00000000	     -0.00000000	     -0.00000000	      0.00000000	     -0.00000000	     -0.00000000	     -0.00000000	      0.00000000	      0.00000000	    -13.55906741	    -17.80071054	      5.74297648	      7.53953490	     -5.74297648	     -7.53953490	     13.55906741	     17.80071054	     -2.74541420	     -3.60425404	     22.18717573	     29.12792457	      9.97320718	     13.09309622	     -9.97320718	    -13.09309622	    -22.18717573	    -29.12792457	      2.74541420	      3.60425404	     30.00000000	     -0.00000000	     56.02973478	     73.55735172	    -30.00000000	     -0.00000000	      0.00000000	     -0.00000000
      1.53987978	     -0.00000000	     -0.00000000	     -0.00000000	     -0.00000000	     -0.00000000	     -0.00000000	     -0.00000000	     -0.00000000	     -0.00000000	     -0.00000000	      0.00000000	      0.00000000	    -14.69132334	    -18.29022080	      6.22254627	      7.74686817	     -6.22254627	     -7.74686817	     14.69132334	     18.29022080	     -2.97467123	     -3.70336915	     24.03992567	     29.92892731	     10.80602427	     13.45314954	    -10.80602427	    -13.45314954	    -24.03992567	    -29.92892731	      2.97467123	      3.70336915	     30.00000000	     -0.00000000	     60.70852262	     75.58014055	    -30.00000000	     -0.00000000	     -0.00000000	     -0.00000000
      1.59578120	     -0.00000000	     -0.00000000	     -0.00000000	     -0.00000000	     -0.00000000	     -0.00000000	     -0.00000000	     -0.00000000	     -0.00000000	     -0.00000000	      0.00000000	      0.00000000	    -15.71935922	    -18.41737655	      6.65797341	      7.80072531	     -6.65797341	     -7.80072531	     15.71935922	     18.41737655	     -3.18282598	     -3.72911540	     25.72213670	     30.13699671	     11.56218356	     13.54667741	    -11.56218356	    -13.54667741	    -25.72213670	    -30.13699671	      3.18282598	      3.72911540	     30.00000000	     -0.00000000	     64.95664500	     76.10558251	    -30.00000000	     -0.00000000	     -0.00000000	     -0.00000000
      1.65168262	     -0.00000000	     -0.00000000	     -0.00000000	     -0.00000000	     -0.00000000	     -0.00000000	     -0.00000000	     -0.00000000	     -0.00000000	     -0.00000000	      0.00000000	      0.00000000	    -16.73873534	    -17.90816909	      7.08973268	      7.58504923	     -7.08973268	     -7.58504923	     16.73873534	     17.90816909	     -3.38922732	     -3.62601204	     27.39017745	     29.30376276	     12.31197327	     13.17213605	    -12.31197327	    -13.17213605	    -27.39017745	    -29.30376276	      3.38922732	      3.62601204	     30.00000000	     -0.00000000	     69.16898289	     74.00139954	    -30.00000000	     -0.00000000	     -0.00000000	     -0.00000000
      1.70758404	     -0.00000000	     -0.00000000	     -0.00000000	     -0.00000000	     -0.00000000	     -0.00000000	     -0.00000000	      0.00000000	     -0.00000000	      0.00000000	      0.00000000	      0.00000000	    -17.70016671	    -16.25008215	      7.49694931	      6.88276241	     -7.49694931	     -6.88276241	     17.70016671	     16.25008215	     -3.58389612	     -3.29028575	     28.96340120	     26.59057716	     13.01914243	     11.95255036	    -13.01914243	    -11.95255036	    -28.96340120	    -26.59057716	      3.58389612	      3.29028575	     30.00000000	     -0.00000000	     73.14187744	     67.14973571	    -30.00000000	     -0.00000000	     -0.00000000	     -0.00000000
